<svg xmlns="http://www.w3.org/2000/svg" viewBox="0 0 48.35 51.74"><g id="Capa_2" data-name="Capa 2"><g id="Capa_1-2" data-name="Capa 1"><path d="M7.29,11.9a5.43,5.43,0,0,0,2.05-1.39,5.34,5.34,0,0,0,1.15-2,7.44,7.44,0,0,0,.37-2.37,7.84,7.84,0,0,0-.35-2.34,5.25,5.25,0,0,0-1.1-2,5.08,5.08,0,0,0-2-1.34A8.64,8.64,0,0,0,4.24,0h-4V12.4h4A8.36,8.36,0,0,0,7.29,11.9ZM1.74,1.43h2.5a6.63,6.63,0,0,1,2.49.4A4,4,0,0,1,8.28,2.91a4.07,4.07,0,0,1,.81,1.52,6.19,6.19,0,0,1,.24,1.71,6.41,6.41,0,0,1-.24,1.74,4.31,4.31,0,0,1-.81,1.56,4,4,0,0,1-1.55,1.11A6.41,6.41,0,0,1,4.24,11H1.74Z"/><path d="M4.71,39.34,0,51.74H1.6l1.2-3.25H8.23l1.2,3.25h1.64L6.32,39.34ZM3.33,47.06l2.18-5.92L7.7,47.06Z"/><polygon points="48.35 40.77 48.35 39.34 39.57 39.34 39.57 51.74 41.1 51.74 41.1 46.28 47.03 46.28 47.03 44.85 41.1 44.85 41.1 40.77 48.35 40.77"/><rect x="15.68" y="44.94" width="16.97" height="1.2"/><path d="M44.24,34a40.65,40.65,0,0,0-28-27.4V7.83A39.45,39.45,0,0,1,43,34Z"/><rect x="4.93" y="17.76" width="1.2" height="16.21"/></g></g></svg>