<svg xmlns="http://www.w3.org/2000/svg" viewBox="0 0 178.18 35.08"><g id="Capa_2" data-name="Capa 2"><g id="Capa_1-2" data-name="Capa 1"><path d="M11.57,12A6.41,6.41,0,0,0,9,10.35a11,11,0,0,0-3.95-.61H0v15.6H5.06A10.15,10.15,0,0,0,8.9,24.7,6.68,6.68,0,0,0,11.48,23a6.78,6.78,0,0,0,1.46-2.52,9.71,9.71,0,0,0,.45-3A9.79,9.79,0,0,0,13,14.52,6.68,6.68,0,0,0,11.57,12Zm-.4,7.61a5.33,5.33,0,0,1-1,2,5.05,5.05,0,0,1-2,1.4,8.1,8.1,0,0,1-3.14.53H1.92v-12H5.06A8.54,8.54,0,0,1,8.2,12a5,5,0,0,1,2,1.36,5.05,5.05,0,0,1,1,1.91,7.82,7.82,0,0,1,.3,2.16A8.13,8.13,0,0,1,11.17,19.65Z"/><rect x="16.03" y="9.74" width="1.92" height="15.6"/><polygon points="23.23 18.48 30.7 18.48 30.7 16.68 23.23 16.68 23.23 11.54 32.35 11.54 32.35 9.74 21.31 9.74 21.31 25.34 32.38 25.34 32.38 23.54 23.23 23.54 23.23 18.48"/><path d="M41.83,19.68H46a6.1,6.1,0,0,1-.75,2.12,4,4,0,0,1-1.57,1.48,5,5,0,0,1-2.27.5A5.34,5.34,0,0,1,38.5,23a5,5,0,0,1-1.88-2.15,7.46,7.46,0,0,1-.64-3.2,7.17,7.17,0,0,1,.72-3.26,5.69,5.69,0,0,1,2-2.27,5.54,5.54,0,0,1,5.08-.39A4.64,4.64,0,0,1,45.43,13a5,5,0,0,1,1,2h1.63a5.82,5.82,0,0,0-3.29-4.82,7.2,7.2,0,0,0-3.19-.68,7.52,7.52,0,0,0-3,.6,6.89,6.89,0,0,0-2.39,1.69,7.76,7.76,0,0,0-1.56,2.59,9.41,9.41,0,0,0-.55,3.28,9.75,9.75,0,0,0,.5,3.22A7.05,7.05,0,0,0,36,23.38,6.57,6.57,0,0,0,38.34,25a7.63,7.63,0,0,0,3.06.58A5.31,5.31,0,0,0,45.29,24a7,7,0,0,0,1.78-3.77c0,.39,0,.8-.08,1.25-.05.69-.08,1.37-.11,2s0,1.26,0,1.79h1.87V17.88H41.83Z"/><path d="M64.73,13.28A7.31,7.31,0,0,0,62,10.48a8.17,8.17,0,0,0-7.76,0,7.31,7.31,0,0,0-2.77,2.8,8.45,8.45,0,0,0-1,4.26,8.39,8.39,0,0,0,1,4.25,7.35,7.35,0,0,0,2.77,2.79,8,8,0,0,0,7.76,0,7.35,7.35,0,0,0,2.77-2.79,8.39,8.39,0,0,0,1-4.25A8.45,8.45,0,0,0,64.73,13.28ZM63.07,21A5.15,5.15,0,0,1,61,23.07a6.38,6.38,0,0,1-5.85,0A5.11,5.11,0,0,1,53.09,21a7,7,0,0,1-.77-3.43,7,7,0,0,1,.77-3.42A5.23,5.23,0,0,1,55.16,12,6.3,6.3,0,0,1,61,12a5.27,5.27,0,0,1,2.06,2.1,7,7,0,0,1,.77,3.42A7,7,0,0,1,63.07,21Z"/><path d="M75.36.24l-5.93,15.6h2L73,11.76h6.83l1.51,4.08h2.06l-6-15.6ZM73.62,10l2.75-7.45L79.12,10Z"/><path d="M89.69,16.08a6.3,6.3,0,0,0,2.94-.6,4,4,0,0,0,1.68-1.57,4.27,4.27,0,0,0,.54-2.1,4.09,4.09,0,0,0-.42-2,3.8,3.8,0,0,0-1.1-1.28,6.81,6.81,0,0,0-1.49-.84c-.54-.23-1.06-.42-1.57-.58-.78-.25-1.45-.49-2-.71A5.48,5.48,0,0,1,87,5.78a2,2,0,0,1-.68-.73,2,2,0,0,1-.2-.92,2,2,0,0,1,.91-1.77,4,4,0,0,1,2.14-.56,3.7,3.7,0,0,1,2.38.74,3.18,3.18,0,0,1,1,2.45h1.72a5,5,0,0,0-1.2-3.62A4.86,4.86,0,0,0,89.28,0a5.93,5.93,0,0,0-2.74.59,4.26,4.26,0,0,0-1.73,1.53,3.83,3.83,0,0,0-.59,2A3.38,3.38,0,0,0,84.73,6a4.44,4.44,0,0,0,1.33,1.33,9.11,9.11,0,0,0,1.78.93c.64.26,1.28.48,1.9.68a14.15,14.15,0,0,1,1.71.64,3.2,3.2,0,0,1,1.1.82,2,2,0,0,1,.38,1.27,2.44,2.44,0,0,1-.37,1.35,2.49,2.49,0,0,1-1.1.9,4.62,4.62,0,0,1-1.81.32,4.8,4.8,0,0,1-2.18-.46A3.67,3.67,0,0,1,86,12.58a3.71,3.71,0,0,1-.6-1.8H83.69a2.46,2.46,0,0,0,0,1,4.89,4.89,0,0,0,.49,1.38,5.26,5.26,0,0,0,1.07,1.41,5.17,5.17,0,0,0,1.79,1.09A7.27,7.27,0,0,0,89.69,16.08Z"/><path d="M106.68,15.42A6.14,6.14,0,0,0,109,13.54a6.27,6.27,0,0,0,1.15-2.91h-1.77a5.05,5.05,0,0,1-1.05,2,4.54,4.54,0,0,1-1.68,1.24,5.18,5.18,0,0,1-2.1.42,5.5,5.5,0,0,1-2.74-.72,5.41,5.41,0,0,1-2.08-2.11A6.8,6.8,0,0,1,97.93,8a6.8,6.8,0,0,1,.79-3.41,5.41,5.41,0,0,1,2.08-2.11,5.5,5.5,0,0,1,2.74-.72,5.19,5.19,0,0,1,2.12.43,4.84,4.84,0,0,1,1.69,1.25,5.1,5.1,0,0,1,1,2h1.78A6.4,6.4,0,0,0,109,2.56,6,6,0,0,0,106.7.66,7.35,7.35,0,0,0,103.54,0a7.81,7.81,0,0,0-3,.56,7.13,7.13,0,0,0-2.39,1.62,7.68,7.68,0,0,0-1.6,2.54A9.14,9.14,0,0,0,96,8a9.16,9.16,0,0,0,.57,3.31,7.73,7.73,0,0,0,1.6,2.55,7.13,7.13,0,0,0,2.39,1.62,7.81,7.81,0,0,0,3,.56A7.3,7.3,0,0,0,106.68,15.42Z"/><polygon points="123.35 14.04 114.2 14.04 114.2 8.98 121.67 8.98 121.67 7.18 114.2 7.18 114.2 2.04 123.32 2.04 123.32 0.24 112.28 0.24 112.28 15.84 123.35 15.84 123.35 14.04"/><polygon points="127.63 3.24 137.22 15.84 139.15 15.84 139.15 0.24 137.22 0.24 137.22 12.87 127.63 0.24 125.7 0.24 125.7 15.84 127.63 15.84 127.63 3.24"/><path d="M154.24,13.54a6.28,6.28,0,0,0,1.16-2.91h-1.78a5,5,0,0,1-1,2,4.54,4.54,0,0,1-1.68,1.24,5.25,5.25,0,0,1-2.1.42,5.51,5.51,0,0,1-2.75-.72A5.41,5.41,0,0,1,144,11.45,6.8,6.8,0,0,1,143.18,8,6.8,6.8,0,0,1,144,4.63a5.41,5.41,0,0,1,2.08-2.11,5.51,5.51,0,0,1,2.75-.72,5.17,5.17,0,0,1,2.11.43,4.75,4.75,0,0,1,1.69,1.25,5.24,5.24,0,0,1,1.05,2h1.77a6.3,6.3,0,0,0-1.15-2.94A6,6,0,0,0,152,.66,7.31,7.31,0,0,0,148.8,0a7.86,7.86,0,0,0-3,.56,7.13,7.13,0,0,0-2.39,1.62,7.5,7.5,0,0,0-1.59,2.54A8.93,8.93,0,0,0,141.26,8a9,9,0,0,0,.58,3.31,7.55,7.55,0,0,0,1.59,2.55,7.13,7.13,0,0,0,2.39,1.62,7.86,7.86,0,0,0,3,.56,7.28,7.28,0,0,0,3.13-.66A6.06,6.06,0,0,0,154.24,13.54Z"/><rect x="158.02" y="0.24" width="1.92" height="15.6"/><path d="M177.14,3.78A7.24,7.24,0,0,0,174.37,1a8.15,8.15,0,0,0-7.75,0,7.31,7.31,0,0,0-2.77,2.8,8.45,8.45,0,0,0-1,4.26,8.39,8.39,0,0,0,1,4.25,7.35,7.35,0,0,0,2.77,2.79,8,8,0,0,0,7.75,0,7.28,7.28,0,0,0,2.77-2.79,8.39,8.39,0,0,0,1-4.25A8.46,8.46,0,0,0,177.14,3.78Zm-1.65,7.69a5.11,5.11,0,0,1-2.07,2.1,6.36,6.36,0,0,1-5.84,0,5.19,5.19,0,0,1-2.08-2.1A7,7,0,0,1,164.74,8a7,7,0,0,1,.76-3.42,5.32,5.32,0,0,1,2.08-2.1,6.28,6.28,0,0,1,5.84,0,5.23,5.23,0,0,1,2.07,2.1A7,7,0,0,1,176.26,8,7,7,0,0,1,175.49,11.47Z"/><polygon points="69.43 34.84 71.35 34.84 71.35 27.98 78.82 27.98 78.82 26.18 71.35 26.18 71.35 21.04 80.47 21.04 80.47 19.24 69.43 19.24 69.43 34.84"/><path d="M95.14,28.84a5,5,0,0,1-.63,2.76,3.18,3.18,0,0,1-1.63,1.32,6.53,6.53,0,0,1-2.21.36,6.76,6.76,0,0,1-2.25-.36,3.21,3.21,0,0,1-1.66-1.32,5,5,0,0,1-.62-2.76v-9.6H84.22v9.6a7.94,7.94,0,0,0,.31,2.34A5.64,5.64,0,0,0,85.41,33a4.63,4.63,0,0,0,1.36,1.21,6.41,6.41,0,0,0,1.79.69,8.92,8.92,0,0,0,2.11.23,8.67,8.67,0,0,0,2.08-.23,6.1,6.1,0,0,0,1.76-.69A4.76,4.76,0,0,0,95.87,33a5.87,5.87,0,0,0,.88-1.77,8.29,8.29,0,0,0,.31-2.34v-9.6H95.14Z"/><polygon points="103.39 27.98 110.86 27.98 110.86 26.18 103.39 26.18 103.39 21.04 112.51 21.04 112.51 19.24 101.47 19.24 101.47 34.84 112.54 34.84 112.54 33.04 103.39 33.04 103.39 27.98"/><polygon points="128.59 31.87 118.99 19.24 117.07 19.24 117.07 34.84 118.99 34.84 118.99 22.24 128.59 34.84 130.51 34.84 130.51 19.24 128.59 19.24 128.59 31.87"/><polygon points="134.33 21.04 139.61 21.04 139.61 34.84 141.53 34.84 141.53 21.04 146.81 21.04 146.81 19.24 134.33 19.24 134.33 21.04"/><polygon points="152.54 27.98 160 27.98 160 26.18 152.54 26.18 152.54 21.04 161.66 21.04 161.66 19.24 150.62 19.24 150.62 34.84 161.68 34.84 161.68 33.04 152.54 33.04 152.54 27.98"/><path d="M174.57,27.57a6.74,6.74,0,0,0-1.48-.84c-.54-.22-1.06-.42-1.58-.58-.78-.25-1.44-.49-2-.7a6.68,6.68,0,0,1-1.27-.66,2.19,2.19,0,0,1-.67-.74,2.17,2.17,0,0,1,.71-2.68,3.94,3.94,0,0,1,2.13-.57,3.63,3.63,0,0,1,2.38.75,3.07,3.07,0,0,1,1,2.44h1.73a5,5,0,0,0-1.2-3.62A4.86,4.86,0,0,0,170.53,19a6,6,0,0,0-2.75.59,4.27,4.27,0,0,0-1.73,1.54,3.76,3.76,0,0,0-.58,2A3.37,3.37,0,0,0,166,25a4.68,4.68,0,0,0,1.33,1.33,9.81,9.81,0,0,0,1.79.94c.64.25,1.27.48,1.9.67a13.87,13.87,0,0,1,1.7.65,2.9,2.9,0,0,1,1.1.81,2,2,0,0,1,.39,1.27A2.31,2.31,0,0,1,172.7,33a4.58,4.58,0,0,1-1.81.32,4.89,4.89,0,0,1-2.17-.45,3.62,3.62,0,0,1-1.45-1.25,3.51,3.51,0,0,1-.6-1.8h-1.73a2.31,2.31,0,0,0,0,1,5.48,5.48,0,0,0,.49,1.38,5.62,5.62,0,0,0,1.07,1.4,5.26,5.26,0,0,0,1.79,1.09,7.33,7.33,0,0,0,2.63.42,6.3,6.3,0,0,0,2.94-.6,4,4,0,0,0,1.68-1.57,4.27,4.27,0,0,0,.54-2.1,4.12,4.12,0,0,0-.42-2A3.82,3.82,0,0,0,174.57,27.57Z"/></g></g></svg>